<svg id="svg" version="1.1" xmlns="http://www.w3.org/2000/svg" xmlns:xlink="http://www.w3.org/1999/xlink" width="400" height="400" viewBox="0, 0, 400,400"><g id="svgg"><path id="path0" d="M138.714 138.700 L 138.600 142.600 134.900 142.715 L 131.200 142.830 131.200 146.409 L 131.200 149.988 119.700 150.094 L 108.200 150.200 108.091 157.900 L 107.983 165.600 103.986 165.600 L 99.990 165.600 100.095 180.500 L 100.200 195.400 104.000 195.600 L 107.800 195.800 107.915 199.500 L 108.030 203.200 111.772 203.200 C 116.171 203.200,116.000 203.013,116.000 207.833 L 116.000 211.200 123.186 211.200 L 130.371 211.200 130.486 207.300 L 130.600 203.400 138.300 203.291 L 146.000 203.183 146.000 199.391 L 146.000 195.600 149.600 195.600 L 153.200 195.600 153.200 191.800 L 153.200 188.000 157.186 188.000 L 161.171 188.000 161.286 184.100 L 161.400 180.200 164.900 180.084 L 168.400 179.969 168.400 176.800 L 168.400 173.631 164.900 173.516 L 161.400 173.400 161.286 169.514 L 161.171 165.629 157.286 165.514 L 153.400 165.400 153.295 150.100 L 153.190 134.800 146.010 134.800 L 138.829 134.800 138.714 138.700 M284.800 153.786 L 284.800 164.771 288.700 164.886 L 292.600 165.000 292.715 168.685 L 292.830 172.369 296.315 172.485 L 299.800 172.600 300.000 176.200 L 300.200 179.800 304.000 180.000 L 307.800 180.200 308.000 184.000 L 308.200 187.800 311.900 187.915 L 315.600 188.030 315.600 195.601 L 315.600 203.171 319.500 203.286 L 323.400 203.400 323.514 207.300 L 323.629 211.200 327.014 211.200 L 330.400 211.200 330.400 200.000 L 330.400 188.800 326.643 188.800 C 322.058 188.800,322.400 189.464,322.400 180.567 L 322.400 173.600 319.080 173.600 C 317.254 173.600,315.588 173.428,315.377 173.217 C 315.166 173.006,313.375 172.781,311.397 172.717 L 307.800 172.600 307.685 168.900 L 307.570 165.200 303.785 165.200 L 300.000 165.200 300.000 161.415 L 300.000 157.630 296.300 157.515 L 292.600 157.400 292.485 153.700 L 292.370 150.000 296.170 150.000 L 299.970 150.000 300.085 153.700 L 300.200 157.400 303.700 157.516 L 307.200 157.631 307.200 153.816 L 307.200 150.000 303.600 150.000 L 300.000 150.000 300.000 146.400 L 300.000 142.800 292.400 142.800 L 284.800 142.800 284.800 153.786 M146.000 153.785 L 146.000 157.570 142.300 157.685 L 138.600 157.800 138.485 161.500 L 138.370 165.200 130.785 165.200 L 123.200 165.200 123.200 169.014 L 123.200 172.829 119.300 172.714 L 115.400 172.600 115.400 169.000 L 115.400 165.400 119.300 165.286 L 123.200 165.171 123.200 161.394 L 123.200 157.618 130.700 157.509 L 138.200 157.400 138.315 153.700 L 138.430 150.000 142.215 150.000 L 146.000 150.000 146.000 153.785 M192.800 176.991 L 192.800 180.382 200.100 180.491 L 207.400 180.600 207.400 184.400 L 207.400 188.200 203.700 188.315 L 200.000 188.430 200.000 192.215 L 200.000 196.000 188.400 196.000 L 176.800 196.000 176.800 192.400 L 176.800 188.800 169.400 188.800 L 162.000 188.800 162.000 196.400 L 162.000 204.000 154.400 204.000 L 146.800 204.000 146.800 207.585 L 146.800 211.170 150.500 211.285 L 154.200 211.400 154.316 214.900 L 154.431 218.400 188.411 218.400 L 222.390 218.400 222.495 203.300 L 222.600 188.200 226.500 188.086 L 230.400 187.971 230.400 180.786 L 230.400 173.600 211.600 173.600 L 192.800 173.600 192.800 176.991 M238.800 181.200 L 238.800 188.800 235.000 188.800 L 231.200 188.800 231.200 198.137 C 231.200 203.272,231.318 209.932,231.462 212.937 L 231.724 218.400 261.862 218.400 L 292.000 218.400 292.000 214.800 L 292.000 211.200 296.000 211.200 L 300.000 211.200 300.000 207.200 L 300.000 203.200 303.600 203.200 L 307.200 203.200 307.200 196.000 L 307.200 188.800 303.600 188.800 L 300.000 188.800 300.000 184.800 L 300.000 180.800 292.200 180.800 L 284.400 180.800 284.400 177.200 L 284.400 173.600 261.600 173.600 L 238.800 173.600 238.800 181.200 M268.567 180.643 C 269.113 180.852,269.200 181.921,269.200 188.443 L 269.200 196.000 261.615 196.000 L 254.030 196.000 253.915 199.700 L 253.800 203.400 250.000 203.400 L 246.200 203.400 246.091 196.156 C 245.958 187.261,245.181 188.048,254.230 187.910 L 261.400 187.800 261.518 184.413 C 261.590 182.323,261.820 180.908,262.118 180.719 C 262.692 180.354,267.662 180.295,268.567 180.643 M177.527 184.500 L 177.400 188.200 184.800 188.000 L 192.200 187.800 192.316 184.300 L 192.431 180.800 185.043 180.800 L 177.655 180.800 177.527 184.500 " stroke="none" fill="#62eeee" fill-rule="evenodd"></path><path id="path1" d="M200.081 123.096 L 200.000 126.792 181.100 126.896 L 162.200 127.000 162.069 131.600 C 161.998 134.130,162.063 142.545,162.216 150.300 L 162.493 164.400 165.767 164.400 C 167.567 164.400,169.224 164.584,169.449 164.809 C 169.707 165.067,172.589 165.178,177.229 165.109 L 184.600 165.000 184.715 161.300 L 184.830 157.600 230.615 157.600 L 276.400 157.600 276.400 153.816 L 276.400 150.031 272.900 149.916 L 269.400 149.800 269.286 145.906 L 269.171 142.012 257.686 141.906 L 246.200 141.800 246.085 138.098 L 245.970 134.396 211.485 134.498 L 177.000 134.600 176.885 138.285 L 176.770 141.970 173.085 142.085 L 169.400 142.200 169.200 146.000 L 169.000 149.800 165.700 149.916 L 162.400 150.032 162.400 138.616 L 162.400 127.200 181.213 127.200 C 196.522 127.200,200.063 127.101,200.230 126.667 C 200.342 126.373,200.373 124.618,200.299 122.767 L 200.163 119.400 200.081 123.096 M245.742 123.000 C 245.741 124.980,245.808 125.840,245.892 124.912 C 245.976 123.984,245.977 122.364,245.895 121.312 C 245.812 120.260,245.743 121.020,245.742 123.000 M257.084 127.097 L 268.368 127.212 268.508 130.306 L 268.648 133.400 268.624 130.200 L 268.600 127.000 257.200 126.990 L 245.800 126.981 257.084 127.097 M62.142 161.400 C 62.141 163.380,62.208 164.240,62.292 163.312 C 62.376 162.384,62.377 160.764,62.295 159.712 C 62.212 158.660,62.143 159.420,62.142 161.400 M315.768 158.540 C 315.654 158.837,315.615 160.322,315.680 161.840 L 315.800 164.600 319.301 164.625 L 322.802 164.650 319.371 164.509 L 315.940 164.368 316.070 161.183 C 316.201 157.983,316.150 157.543,315.768 158.540 M99.678 161.300 L 99.600 164.400 96.024 164.400 C 94.057 164.400,92.363 164.535,92.261 164.700 C 92.158 164.865,93.778 164.942,95.860 164.872 C 100.216 164.725,100.097 164.841,99.898 160.960 L 99.757 158.200 99.678 161.300 M368.542 169.000 C 368.541 170.980,368.608 171.840,368.692 170.912 C 368.776 169.984,368.777 168.364,368.695 167.312 C 368.612 166.260,368.543 167.020,368.542 169.000 M72.714 172.700 L 53.629 172.808 53.514 176.704 L 53.400 180.600 46.000 180.600 L 38.600 180.600 38.482 183.998 C 38.329 188.419,38.758 188.200,30.274 188.200 L 23.000 188.200 22.886 192.085 L 22.771 195.970 19.086 196.085 L 15.400 196.200 15.285 199.900 L 15.170 203.600 11.785 203.600 L 8.400 203.600 8.400 196.133 C 8.400 192.027,8.289 188.778,8.153 188.914 C 8.017 189.050,8.039 195.740,8.202 203.780 L 8.499 218.400 12.003 218.400 C 16.098 218.400,15.986 218.264,15.995 223.238 L 16.000 226.276 21.700 226.536 C 24.835 226.680,36.798 226.798,48.286 226.799 L 69.171 226.800 69.286 222.900 L 69.400 219.000 84.685 218.895 L 99.970 218.791 100.085 215.095 L 100.200 211.400 103.700 211.284 L 107.200 211.169 107.200 207.784 L 107.200 204.400 103.880 204.400 C 99.680 204.400,99.600 204.316,99.600 199.920 L 99.600 196.400 95.808 196.400 C 91.120 196.400,91.517 197.643,91.676 183.477 C 91.744 177.384,91.800 172.443,91.800 172.496 C 91.800 172.549,83.211 172.641,72.714 172.700 M331.239 173.274 C 331.438 173.644,331.600 177.019,331.600 180.774 L 331.600 187.600 334.567 187.600 C 339.147 187.600,338.800 186.923,338.800 195.848 L 338.800 203.610 353.900 203.505 L 369.000 203.400 369.200 199.800 L 369.400 196.200 373.100 196.085 L 376.800 195.970 376.800 192.193 C 376.800 187.837,376.542 188.078,381.400 187.902 L 384.200 187.800 384.316 184.300 L 384.431 180.800 380.516 180.791 C 378.362 180.786,371.560 180.741,365.400 180.691 L 354.200 180.600 354.000 176.800 L 353.800 173.000 342.339 172.800 C 331.682 172.614,330.903 172.647,331.239 173.274 M76.400 176.800 L 76.400 180.400 65.400 180.400 L 54.400 180.400 54.400 176.800 L 54.400 173.200 65.400 173.200 L 76.400 173.200 76.400 176.800 M15.744 184.400 C 15.744 186.490,15.812 187.345,15.894 186.300 C 15.976 185.255,15.976 183.545,15.894 182.500 C 15.812 181.455,15.744 182.310,15.744 184.400 M45.916 184.300 L 45.800 187.800 42.300 187.916 L 38.800 188.031 38.800 184.416 L 38.800 180.800 42.416 180.800 L 46.031 180.800 45.916 184.300 M30.400 192.200 L 30.400 195.600 27.000 195.600 L 23.600 195.600 23.600 192.200 L 23.600 188.800 27.000 188.800 L 30.400 188.800 30.400 192.200 M308.316 207.900 L 308.200 211.400 304.300 211.514 L 300.400 211.629 300.400 215.014 L 300.400 218.400 311.400 218.400 L 322.400 218.400 322.400 215.000 L 322.400 211.600 318.800 211.600 L 315.200 211.600 315.200 208.000 L 315.200 204.400 311.816 204.400 L 308.431 204.400 308.316 207.900 M384.800 208.000 L 384.800 211.600 377.214 211.600 L 369.629 211.600 369.514 215.500 L 369.400 219.400 346.500 219.503 L 323.600 219.607 323.600 223.160 C 323.600 227.510,324.232 227.200,315.367 227.200 L 308.400 227.200 308.400 234.400 L 308.400 241.600 311.786 241.600 C 315.857 241.600,316.000 241.753,316.000 246.108 L 316.000 249.069 344.300 249.328 C 359.865 249.471,375.249 249.472,378.486 249.332 L 384.372 249.077 384.486 245.438 L 384.600 241.800 388.100 241.684 L 391.600 241.569 391.600 222.984 L 391.600 204.400 388.200 204.400 L 384.800 204.400 384.800 208.000 M138.800 219.000 L 138.800 226.400 142.200 226.400 L 145.600 226.400 145.600 219.000 L 145.600 211.600 142.200 211.600 L 138.800 211.600 138.800 219.000 M8.400 238.157 L 8.400 249.113 15.800 249.405 L 23.200 249.697 23.200 253.449 L 23.200 257.200 34.400 257.200 L 45.600 257.200 45.606 253.700 C 45.609 251.775,45.774 249.945,45.971 249.634 C 46.277 249.149,51.301 249.106,80.750 249.330 L 115.171 249.593 115.286 245.696 L 115.400 241.800 118.900 241.684 L 122.400 241.569 122.400 238.184 L 122.400 234.800 103.614 234.800 L 84.829 234.800 84.714 238.700 L 84.600 242.600 54.044 242.703 C 31.803 242.777,23.340 242.682,22.944 242.354 C 22.560 242.035,22.400 240.857,22.400 238.351 L 22.400 234.800 18.800 234.800 L 15.200 234.800 15.200 231.000 L 15.200 227.200 11.800 227.200 L 8.400 227.200 8.400 238.157 M131.587 234.283 C 131.572 243.098,131.730 242.800,127.056 242.800 L 123.600 242.800 123.600 246.200 L 123.600 249.600 165.400 249.600 L 207.200 249.600 207.200 245.843 C 207.200 241.427,207.011 241.600,211.833 241.600 L 215.200 241.600 215.200 234.400 L 215.200 227.200 181.015 227.200 L 146.830 227.200 146.715 230.900 L 146.600 234.600 142.315 234.713 L 138.030 234.827 137.915 231.113 L 137.800 227.400 134.700 227.283 L 131.600 227.166 131.587 234.283 M223.600 234.757 C 223.600 243.476,223.972 242.800,219.167 242.800 L 216.000 242.800 216.000 246.200 L 216.000 249.600 261.600 249.600 L 307.200 249.600 307.200 246.200 L 307.200 242.800 303.643 242.800 C 299.284 242.800,299.600 243.459,299.600 234.367 L 299.600 227.200 261.600 227.200 L 223.600 227.200 223.600 234.757 M200.318 237.600 C 200.383 239.470,200.334 241.409,200.208 241.909 L 199.980 242.817 192.290 242.709 L 184.600 242.600 184.486 238.291 L 184.373 233.983 192.286 234.091 L 200.200 234.200 200.318 237.600 M292.800 238.157 C 292.800 243.204,293.513 242.800,284.600 242.800 C 275.722 242.800,276.400 243.162,276.400 238.424 C 276.400 233.565,275.567 234.000,284.867 234.000 L 292.800 234.000 292.800 238.157 " stroke="none" fill="#cb3c24" fill-rule="evenodd"></path><path id="path2" d="M200.315 123.300 L 200.200 127.000 181.300 127.104 L 162.400 127.208 162.400 138.620 L 162.400 150.032 165.700 149.916 L 169.000 149.800 169.200 146.000 L 169.400 142.200 173.085 142.085 L 176.770 141.970 176.885 138.285 L 177.000 134.600 211.485 134.498 L 245.970 134.396 246.085 138.098 L 246.200 141.800 257.686 141.906 L 269.171 142.012 269.286 145.906 L 269.400 149.800 272.900 149.916 L 276.400 150.031 276.400 142.416 L 276.400 134.800 272.647 134.800 C 268.277 134.800,268.415 134.952,268.405 130.100 L 268.400 127.200 257.243 127.200 C 244.426 127.200,245.600 127.647,245.600 122.767 L 245.600 119.600 223.015 119.600 L 200.430 119.600 200.315 123.300 M62.400 161.167 C 62.400 166.052,63.627 165.600,50.372 165.600 L 38.829 165.600 38.714 169.500 L 38.600 173.400 31.100 173.509 L 23.600 173.618 23.600 177.209 L 23.600 180.800 19.800 180.800 L 16.000 180.800 16.000 184.167 C 16.000 188.967,16.146 188.800,11.957 188.800 L 8.400 188.800 8.400 196.200 L 8.400 203.600 11.785 203.600 L 15.170 203.600 15.285 199.900 L 15.400 196.200 19.086 196.085 L 22.771 195.970 22.886 192.085 L 23.000 188.200 30.274 188.200 C 38.758 188.200,38.329 188.419,38.482 183.998 L 38.600 180.600 46.000 180.600 L 53.400 180.600 53.514 176.704 L 53.629 172.808 72.714 172.704 L 91.800 172.600 92.000 168.600 L 92.200 164.600 95.900 164.485 L 99.600 164.370 99.600 161.185 L 99.600 158.000 81.000 158.000 L 62.400 158.000 62.400 161.167 M316.267 158.267 C 316.120 158.413,316.000 159.853,316.000 161.467 L 316.000 164.400 319.167 164.400 C 323.763 164.400,323.600 164.244,323.600 168.643 L 323.600 172.400 325.900 172.454 C 327.165 172.484,333.960 172.619,341.000 172.754 L 353.800 173.000 354.000 176.800 L 354.200 180.600 365.300 180.706 L 376.400 180.813 376.400 177.206 L 376.400 173.600 372.814 173.600 C 368.486 173.600,368.400 173.507,368.400 168.826 L 368.400 165.600 364.800 165.600 L 361.200 165.600 361.200 161.800 L 361.200 158.000 338.867 158.000 C 326.583 158.000,316.413 158.120,316.267 158.267 M76.490 265.291 L 76.400 272.382 69.300 272.501 L 62.200 272.620 69.313 272.710 C 74.808 272.780,76.470 272.683,76.623 272.285 C 76.731 272.002,76.766 268.717,76.700 264.985 L 76.579 258.200 76.490 265.291 M326.880 272.698 C 328.794 272.771,332.034 272.771,334.080 272.698 C 336.126 272.626,334.560 272.566,330.600 272.565 C 326.640 272.565,324.966 272.624,326.880 272.698 " stroke="none" fill="#dc745c" fill-rule="evenodd"></path><path id="path3" d="M211.529 119.500 C 217.979 119.562,228.419 119.562,234.729 119.500 C 241.038 119.438,235.760 119.387,223.000 119.387 C 210.240 119.387,205.078 119.438,211.529 119.500 M268.727 130.499 C 268.797 132.535,268.977 134.327,269.127 134.482 C 269.277 134.637,269.343 132.972,269.273 130.782 C 269.204 128.592,269.024 126.800,268.873 126.799 C 268.723 126.799,268.657 128.464,268.727 130.499 M161.731 138.000 C 161.720 143.830,161.820 152.290,161.955 156.800 L 162.200 165.000 165.800 165.200 L 169.400 165.400 169.516 168.900 L 169.631 172.400 180.801 172.400 L 191.970 172.400 192.085 168.700 L 192.200 165.000 234.257 164.898 L 276.313 164.796 276.584 157.498 C 276.732 153.484,276.793 146.690,276.718 142.400 C 276.599 135.594,276.570 136.065,276.491 146.100 L 276.400 157.600 230.615 157.600 L 184.830 157.600 184.715 161.300 L 184.600 165.000 177.229 165.109 C 172.589 165.178,169.707 165.067,169.449 164.809 C 169.224 164.584,167.546 164.400,165.720 164.400 L 162.400 164.400 162.345 158.900 C 162.315 155.875,162.169 147.550,162.021 140.400 L 161.752 127.400 161.731 138.000 M68.600 157.889 C 86.040 158.168,99.907 158.173,99.738 157.900 C 99.636 157.735,91.058 157.640,80.676 157.690 C 70.294 157.739,64.860 157.829,68.600 157.889 M315.600 157.900 C 315.600 158.172,332.013 158.168,353.200 157.890 C 357.710 157.831,351.095 157.742,338.500 157.691 C 325.905 157.641,315.600 157.735,315.600 157.900 M61.680 161.694 L 61.600 165.188 50.100 165.300 L 38.600 165.413 50.113 165.506 C 59.425 165.582,61.664 165.498,61.831 165.065 C 61.944 164.770,61.974 163.105,61.898 161.365 L 61.761 158.200 61.680 161.694 M96.203 164.699 C 94.225 164.773,92.478 164.961,92.321 165.117 C 92.164 165.273,93.693 165.343,95.718 165.273 C 97.743 165.203,99.571 164.978,99.780 164.773 C 99.989 164.568,100.079 164.437,99.980 164.482 C 99.881 164.527,98.181 164.625,96.203 164.699 M315.860 164.900 C 315.963 165.065,317.650 165.200,319.609 165.200 L 323.170 165.200 323.285 168.900 L 323.400 172.600 327.100 172.715 L 330.800 172.830 330.800 180.415 L 330.800 188.000 334.500 187.919 L 338.200 187.837 334.900 187.702 L 331.600 187.568 331.600 180.758 C 331.600 172.112,331.752 172.400,327.201 172.400 L 323.630 172.400 323.515 168.700 L 323.400 165.000 319.537 164.800 C 317.412 164.690,315.758 164.735,315.860 164.900 M361.302 164.800 C 361.429 165.267,362.280 165.426,365.132 165.515 L 368.800 165.630 368.800 169.135 C 368.800 173.512,368.884 173.600,373.064 173.600 L 376.369 173.600 376.502 177.100 L 376.635 180.600 376.718 176.915 L 376.800 173.230 373.100 173.115 L 369.400 173.000 369.200 169.200 L 369.000 165.400 365.413 165.283 C 363.191 165.211,361.696 164.983,361.483 164.683 C 361.238 164.340,361.186 164.373,361.302 164.800 M23.403 173.700 C 23.088 174.619,22.996 180.729,23.300 180.540 C 23.465 180.437,23.600 178.838,23.600 176.986 L 23.600 173.618 30.700 173.499 L 37.800 173.380 30.687 173.290 C 25.290 173.222,23.534 173.321,23.403 173.700 M54.400 176.800 L 54.400 180.400 65.400 180.400 L 76.400 180.400 76.400 176.800 L 76.400 173.200 65.400 173.200 L 54.400 173.200 54.400 176.800 M91.776 184.600 C 91.776 190.760,91.832 193.224,91.899 190.076 C 91.967 186.927,91.967 181.887,91.899 178.876 C 91.831 175.864,91.776 178.440,91.776 184.600 M384.800 180.000 C 384.800 180.237,386.267 180.400,388.400 180.400 C 390.533 180.400,392.000 180.237,392.000 180.000 C 392.000 179.763,390.533 179.600,388.400 179.600 C 386.267 179.600,384.800 179.763,384.800 180.000 M38.800 184.416 L 38.800 188.031 42.300 187.916 L 45.800 187.800 45.916 184.300 L 46.031 180.800 42.416 180.800 L 38.800 180.800 38.800 184.416 M381.400 187.880 C 376.529 188.095,376.800 187.841,376.800 192.193 L 376.800 195.970 373.100 196.085 L 369.400 196.200 369.200 199.800 L 369.000 203.400 353.900 203.505 L 338.800 203.610 338.800 207.405 L 338.800 211.200 353.986 211.200 L 369.171 211.200 369.286 207.300 L 369.400 203.400 376.900 203.291 L 384.400 203.182 384.400 195.391 C 384.400 191.106,384.355 187.635,384.300 187.678 C 384.245 187.721,382.940 187.812,381.400 187.880 M11.800 188.400 L 8.200 188.649 11.676 188.724 C 13.649 188.767,15.260 188.627,15.400 188.400 C 15.536 188.180,15.592 188.034,15.524 188.076 C 15.456 188.117,13.780 188.263,11.800 188.400 M23.600 192.200 L 23.600 195.600 27.000 195.600 L 30.400 195.600 30.400 192.200 L 30.400 188.800 27.000 188.800 L 23.600 188.800 23.600 192.200 M95.700 196.298 L 99.600 196.429 99.600 199.934 C 99.600 204.314,99.682 204.400,103.880 204.400 L 107.200 204.400 107.200 207.784 L 107.200 211.169 103.700 211.284 L 100.200 211.400 100.085 215.095 L 99.970 218.791 84.685 218.895 L 69.400 219.000 69.286 222.900 L 69.171 226.800 48.286 226.799 C 36.798 226.798,24.842 226.680,21.715 226.537 L 16.029 226.277 15.890 222.937 L 15.750 219.598 15.775 223.099 L 15.800 226.600 19.700 226.714 L 23.600 226.829 23.600 230.414 L 23.600 234.000 53.985 234.000 L 84.370 234.000 84.485 230.300 L 84.600 226.600 107.500 226.497 L 130.400 226.393 130.400 223.006 L 130.400 219.618 122.900 219.509 L 115.400 219.400 115.286 215.500 L 115.171 211.600 111.401 211.600 L 107.630 211.600 107.515 207.900 L 107.400 204.200 103.800 204.000 L 100.200 203.800 100.086 199.900 L 99.971 196.000 95.886 196.084 L 91.800 196.167 95.700 196.298 M8.091 211.073 L 8.000 218.745 11.801 218.873 C 13.891 218.943,15.601 218.865,15.601 218.700 C 15.600 218.535,13.984 218.400,12.009 218.400 L 8.418 218.400 8.299 210.900 L 8.181 203.400 8.091 211.073 M308.000 207.567 C 308.000 209.604,307.824 211.221,307.590 211.337 C 307.365 211.449,307.410 211.494,307.690 211.438 C 308.045 211.367,308.235 210.286,308.315 207.883 L 308.431 204.431 311.915 204.298 L 315.400 204.165 311.700 204.082 L 308.000 204.000 308.000 207.567 M388.100 204.298 L 391.600 204.431 391.600 223.016 L 391.600 241.600 388.224 241.600 C 386.367 241.600,384.763 241.735,384.661 241.900 C 384.558 242.065,386.167 242.143,388.237 242.073 L 392.000 241.945 392.000 222.973 L 392.000 204.000 388.300 204.082 L 384.600 204.165 388.100 204.298 M145.690 218.884 L 145.600 226.369 142.100 226.502 L 138.600 226.635 142.113 226.718 C 146.385 226.818,146.049 227.540,145.900 218.587 L 145.780 211.400 145.690 218.884 M300.174 215.000 L 300.200 218.600 311.500 218.706 L 322.800 218.812 322.718 215.106 L 322.635 211.400 322.502 214.900 L 322.369 218.400 311.400 218.400 L 300.431 218.400 300.289 214.900 L 300.147 211.400 300.174 215.000 M369.282 215.297 L 369.200 219.193 346.300 219.297 L 323.400 219.400 323.375 223.200 L 323.350 227.000 323.490 223.300 L 323.630 219.600 346.428 219.600 C 365.021 219.600,369.263 219.502,369.429 219.068 C 369.541 218.776,369.573 216.931,369.499 214.968 L 369.365 211.400 369.282 215.297 M8.000 238.185 L 8.000 249.570 11.700 249.685 L 15.400 249.800 15.514 253.452 L 15.629 257.104 23.037 257.396 C 27.111 257.557,30.555 257.579,30.689 257.444 C 30.823 257.310,29.193 257.200,27.067 257.200 L 23.200 257.200 23.200 253.449 L 23.200 249.697 15.800 249.405 L 8.400 249.113 8.400 238.172 L 8.400 227.231 11.900 227.098 L 15.400 226.965 11.700 226.882 L 8.000 226.800 8.000 238.185 M130.709 234.500 L 130.600 242.200 127.202 242.318 C 122.840 242.469,123.083 241.951,123.420 250.355 L 123.710 257.600 165.404 257.600 L 207.098 257.600 207.391 249.975 C 207.552 245.781,207.574 242.241,207.442 242.108 C 207.309 241.975,207.200 243.607,207.200 245.733 L 207.200 249.600 165.400 249.600 L 123.600 249.600 123.600 246.200 L 123.600 242.800 127.056 242.800 C 131.730 242.800,131.572 243.098,131.587 234.283 L 131.600 227.166 134.700 227.283 L 137.800 227.400 137.915 231.100 C 137.978 233.135,138.158 234.800,138.315 234.801 C 138.619 234.802,138.515 229.206,138.183 227.700 C 137.995 226.848,137.792 226.800,134.401 226.800 L 130.817 226.800 130.709 234.500 M146.327 230.763 C 146.257 232.943,146.335 234.642,146.500 234.539 C 146.665 234.437,146.800 232.744,146.800 230.779 L 146.800 227.204 181.100 227.100 L 215.400 226.995 180.927 226.898 L 146.453 226.800 146.327 230.763 M223.391 227.300 C 223.289 227.575,223.160 231.040,223.103 235.000 L 223.000 242.200 219.291 242.315 L 215.582 242.430 215.691 249.915 L 215.800 257.400 261.282 257.384 C 286.297 257.376,306.845 257.286,306.944 257.184 C 307.042 257.083,307.185 253.760,307.262 249.800 L 307.400 242.600 303.800 242.400 L 300.200 242.200 300.091 234.500 L 299.983 226.800 261.779 226.800 C 231.581 226.800,223.536 226.905,223.391 227.300 M308.000 234.373 L 308.000 241.945 311.763 242.073 C 313.833 242.143,315.442 242.065,315.339 241.900 C 315.237 241.735,313.633 241.600,311.776 241.600 L 308.400 241.600 308.400 234.409 L 308.400 227.218 315.700 227.099 L 323.000 226.981 315.500 226.890 L 308.000 226.800 308.000 234.373 M299.600 234.367 C 299.600 243.459,299.284 242.800,303.643 242.800 L 307.200 242.800 307.200 246.200 L 307.200 249.600 261.600 249.600 L 216.000 249.600 216.000 246.200 L 216.000 242.800 219.167 242.800 C 223.972 242.800,223.600 243.476,223.600 234.757 L 223.600 227.200 261.600 227.200 L 299.600 227.200 299.600 234.367 M199.800 238.137 L 199.800 242.200 192.429 242.309 C 186.815 242.393,184.973 242.297,184.699 241.909 C 184.427 241.524,184.379 241.546,184.503 242.000 C 184.727 242.823,199.552 243.117,200.065 242.309 C 200.473 241.666,200.504 234.512,200.100 234.261 C 199.935 234.159,199.800 235.903,199.800 238.137 M276.667 234.267 C 276.049 234.884,276.377 242.306,277.033 242.557 C 279.032 243.324,292.800 242.758,292.800 241.908 C 292.800 241.658,292.587 241.678,292.248 241.960 C 291.866 242.277,289.429 242.385,284.348 242.309 L 277.000 242.200 276.884 238.433 C 276.800 235.690,276.908 234.578,277.284 234.340 C 277.577 234.154,277.613 234.010,277.367 234.006 C 277.128 234.003,276.813 234.120,276.667 234.267 M22.483 238.220 C 22.428 240.604,22.564 242.004,22.880 242.320 C 23.425 242.865,84.203 243.042,84.538 242.500 C 84.640 242.335,71.196 242.250,54.662 242.311 C 38.128 242.373,24.202 242.326,23.715 242.208 C 22.894 242.008,22.820 241.726,22.698 238.296 L 22.566 234.600 22.483 238.220 M122.400 238.200 L 122.400 241.600 119.024 241.600 C 117.167 241.600,115.563 241.735,115.461 241.900 C 115.358 242.065,116.967 242.143,119.037 242.073 L 122.800 241.945 122.800 238.373 C 122.800 236.408,122.710 234.800,122.600 234.800 C 122.490 234.800,122.400 236.330,122.400 238.200 M209.700 241.894 C 210.745 241.976,212.455 241.976,213.500 241.894 C 214.545 241.812,213.690 241.744,211.600 241.744 C 209.510 241.744,208.655 241.812,209.700 241.894 M394.500 242.694 C 395.545 242.776,397.255 242.776,398.300 242.694 C 399.345 242.612,398.490 242.544,396.400 242.544 C 394.310 242.544,393.455 242.612,394.500 242.694 M315.681 246.100 L 315.600 249.600 334.757 249.600 C 351.857 249.600,353.940 249.668,354.157 250.233 C 354.291 250.581,354.400 252.291,354.400 254.033 L 354.400 257.200 365.385 257.200 L 376.370 257.200 376.485 253.500 L 376.600 249.800 380.400 249.551 C 383.102 249.374,382.524 249.343,378.400 249.444 C 375.210 249.523,359.872 249.471,344.315 249.328 L 316.030 249.069 315.897 245.834 L 315.763 242.600 315.681 246.100 M45.843 249.833 C 45.709 250.181,45.634 252.026,45.677 253.933 L 45.753 257.400 45.977 253.600 L 46.200 249.800 69.400 249.800 L 92.600 249.800 92.715 253.500 L 92.830 257.200 98.915 257.202 C 102.262 257.203,107.295 257.320,110.100 257.463 L 115.200 257.723 115.200 253.727 L 115.200 249.730 98.334 249.465 C 66.503 248.965,46.121 249.107,45.843 249.833 M30.800 269.000 C 30.800 271.000,30.965 272.400,31.200 272.400 C 31.435 272.400,31.600 271.000,31.600 269.000 C 31.600 267.000,31.435 265.600,31.200 265.600 C 30.965 265.600,30.800 267.000,30.800 269.000 " stroke="none" fill="#922819" fill-rule="evenodd"></path><path id="path4" d="M138.315 153.700 L 138.200 157.400 130.700 157.509 L 123.200 157.618 123.200 161.394 L 123.200 165.171 119.300 165.286 L 115.400 165.400 115.400 169.000 L 115.400 172.600 119.300 172.714 L 123.200 172.829 123.200 169.014 L 123.200 165.200 130.785 165.200 L 138.370 165.200 138.485 161.500 L 138.600 157.800 142.300 157.685 L 146.000 157.570 146.000 153.785 L 146.000 150.000 142.215 150.000 L 138.430 150.000 138.315 153.700 M292.485 153.700 L 292.600 157.400 296.300 157.515 L 300.000 157.630 300.000 161.415 L 300.000 165.200 303.600 165.200 L 307.200 165.200 307.200 161.416 L 307.200 157.631 303.700 157.516 L 300.200 157.400 300.085 153.700 L 299.970 150.000 296.170 150.000 L 292.370 150.000 292.485 153.700 M307.684 169.100 L 307.800 172.600 311.500 172.715 L 315.200 172.830 315.200 169.215 L 315.200 165.600 311.384 165.600 L 307.569 165.600 307.684 169.100 M192.599 180.891 C 192.498 181.171,192.367 182.840,192.308 184.600 L 192.200 187.800 185.030 187.910 C 176.418 188.041,176.800 187.831,176.800 192.449 L 176.800 196.000 188.400 196.000 L 200.000 196.000 200.000 192.215 L 200.000 188.430 203.700 188.315 L 207.400 188.200 207.400 184.400 L 207.400 180.600 200.091 180.491 C 194.458 180.407,192.740 180.499,192.599 180.891 M262.118 180.719 C 261.820 180.908,261.590 182.323,261.518 184.413 L 261.400 187.800 254.230 187.910 C 245.181 188.048,245.958 187.261,246.091 196.156 L 246.200 203.400 250.000 203.400 L 253.800 203.400 253.915 199.700 L 254.030 196.000 261.615 196.000 L 269.200 196.000 269.200 188.443 C 269.200 181.921,269.113 180.852,268.567 180.643 C 267.662 180.295,262.692 180.354,262.118 180.719 M62.267 258.267 C 62.120 258.413,62.000 261.653,62.000 265.467 L 62.000 272.400 69.200 272.400 L 76.400 272.400 76.400 265.200 L 76.400 258.000 69.467 258.000 C 65.653 258.000,62.413 258.120,62.267 258.267 M323.600 265.191 L 323.600 272.400 330.809 272.400 L 338.018 272.400 337.909 265.300 L 337.800 258.200 330.700 258.091 L 323.600 257.982 323.600 265.191 " stroke="none" fill="#f1f4f4" fill-rule="evenodd"></path><path id="path5" d="M199.685 114.900 L 199.800 118.600 222.900 118.703 L 246.000 118.806 246.000 115.003 L 246.000 111.200 222.785 111.200 L 199.570 111.200 199.685 114.900 M161.700 119.463 C 161.356 119.603,161.200 120.715,161.200 123.033 L 161.200 126.400 150.000 126.400 L 138.800 126.400 138.800 130.400 L 138.800 134.400 146.400 134.400 L 154.000 134.400 154.000 149.800 L 154.000 165.200 157.596 165.200 L 161.192 165.200 161.296 145.900 L 161.400 126.600 180.716 126.496 L 200.031 126.392 199.916 122.896 L 199.800 119.400 181.000 119.330 C 170.660 119.291,161.975 119.351,161.700 119.463 M246.400 122.794 L 246.400 126.388 257.900 126.494 L 269.400 126.600 269.514 130.500 L 269.629 134.400 273.219 134.400 L 276.809 134.400 276.705 149.900 L 276.600 165.400 234.484 165.502 L 192.369 165.604 192.484 169.102 L 192.600 172.600 211.700 172.704 L 230.800 172.808 230.800 180.404 L 230.800 188.000 234.591 188.000 L 238.382 188.000 238.491 180.500 L 238.600 173.000 261.700 172.897 L 284.800 172.794 284.800 176.597 L 284.800 180.400 292.415 180.400 L 300.030 180.400 299.915 176.700 L 299.800 173.000 296.000 172.800 L 292.200 172.600 292.084 169.100 L 291.969 165.600 288.392 165.600 C 283.973 165.600,284.344 166.797,284.488 153.000 L 284.600 142.200 292.285 142.091 L 299.970 141.983 300.085 145.691 L 300.200 149.400 303.900 149.515 L 307.600 149.630 307.600 145.615 L 307.600 141.600 304.000 141.600 L 300.400 141.600 300.400 138.200 L 300.400 134.800 292.600 134.800 L 284.800 134.800 284.800 130.600 L 284.800 126.400 277.200 126.400 L 269.600 126.400 269.600 122.800 L 269.600 119.200 258.000 119.200 L 246.400 119.200 246.400 122.794 M130.400 138.200 L 130.400 141.600 119.200 141.600 L 108.000 141.600 108.000 145.600 L 108.000 149.600 119.200 149.600 L 130.400 149.600 130.400 146.433 C 130.400 141.837,130.244 142.000,134.643 142.000 L 138.400 142.000 138.400 138.400 L 138.400 134.800 134.400 134.800 L 130.400 134.800 130.400 138.200 M61.467 150.267 C 61.320 150.413,61.200 152.033,61.200 153.867 L 61.200 157.200 50.000 157.200 L 38.800 157.200 38.800 161.200 L 38.800 165.200 50.000 165.200 L 61.200 165.200 61.200 161.200 L 61.200 157.200 80.557 157.200 C 97.839 157.200,99.940 157.268,100.157 157.833 C 100.291 158.181,100.400 159.988,100.400 161.848 L 100.400 165.231 103.900 165.116 L 107.400 165.000 107.509 157.500 L 107.618 150.000 84.675 150.000 C 72.057 150.000,61.613 150.120,61.467 150.267 M308.000 157.600 L 308.000 165.200 311.586 165.200 L 315.171 165.200 315.286 161.300 L 315.400 157.400 338.300 157.297 L 361.200 157.193 361.200 153.597 L 361.200 150.000 334.600 150.000 L 308.000 150.000 308.000 157.600 M361.770 157.733 C 361.658 158.027,361.618 159.782,361.683 161.633 L 361.800 165.000 365.366 165.117 C 369.659 165.257,369.586 165.333,369.594 160.700 L 369.600 157.200 365.787 157.200 C 362.979 157.200,361.921 157.340,361.770 157.733 M23.284 169.100 L 23.400 172.600 30.000 172.714 C 38.980 172.870,38.400 173.126,38.400 168.992 L 38.400 165.600 30.784 165.600 L 23.169 165.600 23.284 169.100 M92.495 180.700 L 92.600 195.800 96.200 195.800 L 99.800 195.800 99.905 180.700 L 100.010 165.600 96.200 165.600 L 92.390 165.600 92.495 180.700 M161.684 169.100 L 161.800 172.600 165.500 172.715 L 169.200 172.830 169.200 169.215 L 169.200 165.600 165.384 165.600 L 161.569 165.600 161.684 169.100 M315.600 169.215 L 315.600 172.830 319.300 172.715 L 323.000 172.600 323.116 169.100 L 323.231 165.600 319.416 165.600 L 315.600 165.600 315.600 169.215 M369.600 169.216 L 369.600 172.831 373.100 172.716 L 376.600 172.600 376.716 169.100 L 376.831 165.600 373.216 165.600 L 369.600 165.600 369.600 169.216 M8.017 180.200 L 7.972 188.000 11.571 188.000 L 15.170 188.000 15.285 184.300 L 15.400 180.600 18.987 180.483 C 23.178 180.347,23.186 180.340,23.194 176.674 C 23.204 172.219,23.542 172.400,15.217 172.400 L 8.062 172.400 8.017 180.200 M377.214 173.174 C 376.768 174.008,376.645 178.730,377.043 179.767 C 377.240 180.282,377.986 180.400,381.043 180.400 L 384.800 180.400 384.800 176.400 L 384.800 172.400 381.214 172.400 C 378.078 172.400,377.576 172.497,377.214 173.174 M169.600 176.167 C 169.600 180.989,169.773 180.800,165.357 180.800 L 161.600 180.800 161.600 184.400 L 161.600 188.000 169.185 188.000 L 176.770 188.000 176.885 184.300 L 177.000 180.600 184.500 180.491 L 192.000 180.382 192.000 176.591 L 192.000 172.800 180.800 172.800 L 169.600 172.800 169.600 176.167 M323.378 173.314 C 323.269 173.597,323.230 176.972,323.290 180.814 L 323.400 187.800 326.900 187.916 L 330.400 188.031 330.400 180.416 L 330.400 172.800 326.987 172.800 C 324.577 172.800,323.517 172.951,323.378 173.314 M300.084 184.300 L 300.200 187.800 303.900 187.915 L 307.600 188.030 307.600 184.415 L 307.600 180.800 303.784 180.800 L 299.969 180.800 300.084 184.300 M384.800 192.200 L 384.800 203.600 388.400 203.600 L 392.000 203.600 392.000 192.200 L 392.000 180.800 388.400 180.800 L 384.800 180.800 384.800 192.200 M0.000 219.000 L 0.000 250.400 3.600 250.400 C 5.580 250.400,7.238 250.355,7.285 250.300 C 7.331 250.245,7.466 244.890,7.585 238.400 L 7.800 226.600 11.500 226.485 L 15.200 226.370 15.200 222.800 L 15.200 219.230 11.500 219.115 L 7.800 219.000 7.588 203.400 C 7.472 194.820,7.337 187.755,7.288 187.700 C 7.240 187.645,5.580 187.600,3.600 187.600 L 0.000 187.600 0.000 219.000 M154.267 188.667 C 154.120 188.813,154.000 190.517,154.000 192.452 L 154.000 195.971 150.100 196.086 L 146.200 196.200 146.200 199.800 L 146.200 203.400 153.700 203.509 L 161.200 203.618 161.200 196.009 L 161.200 188.400 157.867 188.400 C 156.033 188.400,154.413 188.520,154.267 188.667 M223.388 188.900 C 223.285 189.175,223.156 196.060,223.101 204.200 L 223.000 219.000 188.500 219.102 L 154.000 219.204 154.000 215.402 L 154.000 211.600 150.200 211.600 L 146.400 211.600 146.400 218.998 L 146.400 226.396 180.900 226.498 L 215.400 226.600 215.509 234.315 L 215.617 242.030 219.309 241.915 L 223.000 241.800 223.109 234.098 L 223.217 226.396 261.709 226.498 L 300.200 226.600 300.309 234.315 L 300.417 242.031 303.909 241.915 L 307.400 241.800 307.600 234.200 L 307.800 226.600 315.515 226.491 L 323.231 226.383 323.115 222.891 L 323.000 219.400 311.500 219.294 L 300.000 219.188 300.000 215.394 L 300.000 211.600 296.215 211.600 L 292.430 211.600 292.315 215.300 L 292.200 219.000 261.563 219.102 L 230.925 219.205 230.663 213.139 C 230.518 209.803,230.400 202.871,230.400 197.736 L 230.400 188.400 226.987 188.400 C 224.624 188.400,223.517 188.554,223.388 188.900 M308.091 195.900 L 308.200 203.400 311.700 203.516 L 315.200 203.631 315.200 196.016 L 315.200 188.400 311.591 188.400 L 307.982 188.400 308.091 195.900 M330.800 199.985 L 330.800 211.600 326.984 211.600 L 323.169 211.600 323.284 215.100 L 323.400 218.600 346.300 218.703 L 369.200 218.807 369.200 215.208 L 369.200 211.610 353.900 211.505 L 338.600 211.400 338.400 200.000 L 338.200 188.600 334.500 188.485 L 330.800 188.370 330.800 199.985 M100.400 199.800 L 100.400 203.631 103.900 203.516 L 107.400 203.400 107.400 199.800 L 107.400 196.200 103.900 196.084 L 100.400 195.969 100.400 199.800 M369.600 207.391 L 369.600 211.200 377.015 211.200 L 384.430 211.200 384.315 207.500 L 384.200 203.800 376.900 203.691 L 369.600 203.582 369.600 207.391 M108.000 207.600 L 108.000 211.200 111.600 211.200 L 115.200 211.200 115.200 207.600 L 115.200 204.000 111.600 204.000 L 108.000 204.000 108.000 207.600 M130.715 207.700 L 130.600 211.400 123.100 211.509 L 115.600 211.618 115.600 215.200 L 115.600 218.782 123.100 218.891 L 130.600 219.000 130.715 222.700 L 130.830 226.400 134.615 226.400 L 138.400 226.400 138.400 218.800 L 138.400 211.200 142.200 211.200 L 146.000 211.200 146.000 207.600 L 146.000 204.000 138.415 204.000 L 130.830 204.000 130.715 207.700 M300.000 207.600 L 300.000 211.200 303.800 211.200 L 307.600 211.200 307.600 207.600 L 307.600 204.000 303.800 204.000 L 300.000 204.000 300.000 207.600 M315.600 207.585 L 315.600 211.200 319.416 211.200 L 323.231 211.200 323.116 207.700 L 323.000 204.200 319.300 204.085 L 315.600 203.970 315.600 207.585 M392.400 223.000 L 392.400 242.000 396.200 242.000 L 400.000 242.000 400.000 223.000 L 400.000 204.000 396.200 204.000 L 392.400 204.000 392.400 223.000 M15.600 230.600 L 15.600 234.430 19.300 234.315 L 23.000 234.200 23.000 230.600 L 23.000 227.000 19.300 226.885 L 15.600 226.770 15.600 230.600 M84.800 230.596 L 84.800 234.392 103.900 234.496 L 123.000 234.600 123.200 238.200 L 123.400 241.800 126.900 241.916 L 130.400 242.031 130.400 234.416 L 130.400 226.800 107.600 226.800 L 84.800 226.800 84.800 230.596 M138.800 230.616 L 138.800 234.431 142.300 234.316 L 145.800 234.200 145.915 230.500 L 146.030 226.800 142.415 226.800 L 138.800 226.800 138.800 230.616 M23.284 238.300 L 23.400 241.800 53.900 241.902 L 84.400 242.005 84.400 238.402 L 84.400 234.800 53.784 234.800 L 23.169 234.800 23.284 238.300 M184.800 238.409 L 184.800 242.018 192.300 241.909 L 199.800 241.800 199.916 238.300 L 200.031 234.800 192.416 234.800 L 184.800 234.800 184.800 238.409 M276.800 238.157 C 276.800 242.280,276.201 242.000,285.033 242.000 L 292.000 242.000 292.000 238.400 L 292.000 234.800 284.400 234.800 L 276.800 234.800 276.800 238.157 M115.600 248.322 C 115.600 251.595,115.482 256.732,115.338 259.737 L 115.076 265.200 111.523 265.200 L 107.970 265.200 108.085 268.900 L 108.200 272.600 200.000 272.600 L 291.800 272.600 291.915 268.900 L 292.030 265.200 253.858 265.200 C 219.419 265.200,215.662 265.138,215.443 264.567 C 215.309 264.219,215.200 259.089,215.200 253.167 L 215.200 242.400 211.600 242.400 L 208.000 242.400 207.999 248.100 C 207.998 251.235,207.880 256.365,207.736 259.500 L 207.476 265.200 165.344 265.200 L 123.212 265.200 123.106 253.900 L 123.000 242.600 119.300 242.485 L 115.600 242.370 115.600 248.322 M307.909 249.900 L 307.800 257.400 300.086 257.509 L 292.371 257.617 292.486 261.509 L 292.600 265.400 296.100 265.516 L 299.600 265.631 299.600 269.216 L 299.600 272.800 303.557 272.800 C 308.200 272.800,308.000 272.591,308.000 277.433 L 308.000 280.800 311.600 280.800 L 315.200 280.800 315.200 284.600 L 315.200 288.400 330.600 288.400 L 346.000 288.400 346.000 284.600 L 346.000 280.800 350.237 280.800 L 354.475 280.800 354.337 276.800 L 354.200 272.799 357.685 272.800 L 361.170 272.800 361.285 269.165 L 361.400 265.530 368.851 265.581 C 377.486 265.638,376.800 266.036,376.800 260.967 L 376.800 257.600 365.415 257.600 L 354.030 257.600 353.915 253.900 L 353.800 250.200 334.600 250.000 L 315.400 249.800 315.285 246.100 L 315.170 242.400 311.594 242.400 L 308.018 242.400 307.909 249.900 M384.800 246.186 L 384.800 249.971 380.900 250.086 L 377.000 250.200 376.884 253.700 L 376.769 257.200 380.784 257.200 L 384.800 257.200 384.800 253.800 L 384.800 250.400 388.400 250.400 L 392.000 250.400 392.000 246.400 L 392.000 242.400 388.400 242.400 L 384.800 242.400 384.800 246.186 M8.000 253.600 L 8.000 257.200 11.600 257.200 L 15.200 257.200 15.200 253.600 L 15.200 250.000 11.600 250.000 L 8.000 250.000 8.000 253.600 M46.315 253.700 L 46.200 257.400 38.500 257.509 L 30.800 257.617 30.800 261.366 C 30.800 265.790,30.686 265.686,35.393 265.560 L 38.600 265.475 38.715 269.137 L 38.830 272.800 42.315 272.800 L 45.800 272.799 45.663 276.800 L 45.525 280.800 49.763 280.800 L 54.000 280.800 54.000 284.600 L 54.000 288.400 69.400 288.400 L 84.800 288.400 84.800 284.600 L 84.800 280.800 88.400 280.800 L 92.000 280.800 92.000 277.433 C 92.000 272.591,91.800 272.800,96.443 272.800 L 100.400 272.800 100.400 269.216 L 100.400 265.631 103.900 265.516 L 107.400 265.400 107.514 261.509 L 107.629 257.617 99.914 257.509 L 92.200 257.400 92.085 253.700 L 91.970 250.000 69.200 250.000 L 46.430 250.000 46.315 253.700 M76.800 265.009 L 76.800 272.817 69.100 272.709 L 61.400 272.600 61.291 265.452 C 61.152 256.404,60.365 257.200,69.449 257.200 L 76.800 257.200 76.800 265.009 M338.600 265.000 L 338.600 272.600 330.900 272.709 L 323.200 272.817 323.200 265.000 L 323.200 257.183 330.900 257.291 L 338.600 257.400 338.600 265.000 M15.481 257.853 C 15.326 258.007,15.200 259.813,15.200 261.867 L 15.200 265.600 18.700 265.594 C 23.333 265.586,23.257 265.659,23.117 261.366 L 23.000 257.800 19.381 257.686 C 17.390 257.623,15.635 257.698,15.481 257.853 M23.285 268.885 L 23.400 272.600 27.000 272.600 L 30.600 272.600 30.600 269.000 L 30.600 265.400 26.885 265.285 L 23.170 265.170 23.285 268.885 " stroke="none" fill="#040404" fill-rule="evenodd"></path><path id="path6" d="M161.475 118.950 C 161.347 119.282,172.485 119.374,203.951 119.302 C 227.408 119.247,251.775 119.202,258.100 119.202 C 264.425 119.201,269.600 119.065,269.600 118.900 C 269.600 118.381,161.674 118.431,161.475 118.950 M138.484 130.000 L 138.402 133.800 134.401 133.673 C 130.982 133.565,130.400 133.638,130.400 134.173 C 130.400 135.023,138.304 135.116,138.628 134.270 C 138.740 133.978,138.772 132.043,138.699 129.970 L 138.566 126.200 138.484 130.000 M161.383 126.900 C 161.278 127.175,161.239 135.950,161.296 146.400 L 161.400 165.400 165.400 165.431 L 169.400 165.463 165.600 165.231 L 161.800 165.000 161.800 145.700 C 161.800 135.085,161.749 126.400,161.687 126.400 C 161.626 126.400,161.489 126.625,161.383 126.900 M269.197 130.118 L 269.394 133.800 269.514 130.437 C 269.580 128.588,269.492 126.931,269.317 126.755 C 269.143 126.580,269.089 128.093,269.197 130.118 M284.800 134.200 C 284.800 134.713,285.933 134.800,292.600 134.800 C 299.267 134.800,300.400 134.713,300.400 134.200 C 300.400 133.687,299.267 133.600,292.600 133.600 C 285.933 133.600,284.800 133.687,284.800 134.200 M107.200 145.597 L 107.200 149.593 84.700 149.700 L 62.200 149.807 85.100 149.903 L 108.000 150.000 108.000 145.800 C 108.000 143.267,107.841 141.600,107.600 141.600 C 107.360 141.600,107.200 143.199,107.200 145.597 M307.526 145.900 C 307.457 148.265,307.496 153.620,307.613 157.800 L 307.826 165.400 307.913 157.700 L 308.000 150.000 334.600 150.000 L 361.200 150.000 361.200 153.600 L 361.200 157.200 338.424 157.200 C 325.897 157.200,315.564 157.335,315.462 157.500 C 315.360 157.665,325.744 157.753,338.538 157.695 L 361.800 157.589 361.600 153.695 L 361.400 149.800 334.900 149.697 L 308.400 149.594 308.400 145.597 C 308.400 140.224,307.684 140.472,307.526 145.900 M38.391 161.000 L 38.200 165.000 30.400 165.222 C 26.110 165.344,22.555 165.479,22.500 165.522 C 22.202 165.755,22.473 172.694,22.800 173.200 C 23.281 173.944,23.291 173.842,23.205 169.300 L 23.135 165.600 30.780 165.600 C 39.622 165.600,38.882 166.051,38.707 160.770 L 38.582 157.000 38.391 161.000 M61.284 161.300 L 61.367 165.400 61.498 161.504 L 61.629 157.608 80.914 157.500 L 100.200 157.392 80.700 157.296 L 61.200 157.200 61.284 161.300 M369.314 168.400 L 369.365 172.600 369.498 169.100 L 369.631 165.600 373.248 165.600 L 376.865 165.600 376.795 169.300 C 376.709 173.842,376.719 173.944,377.200 173.200 C 377.413 172.870,377.591 171.044,377.594 169.143 C 377.601 165.070,377.752 165.200,373.001 165.200 C 370.708 165.200,369.604 165.044,369.465 164.700 C 369.354 164.425,369.286 166.090,369.314 168.400 M234.400 165.197 L 192.200 165.400 192.091 172.976 C 192.031 177.142,192.083 180.451,192.206 180.327 C 192.330 180.204,192.431 176.839,192.431 172.851 L 192.431 165.600 234.392 165.600 C 261.934 165.600,276.438 165.463,276.600 165.200 C 276.736 164.980,276.792 164.844,276.724 164.897 C 276.656 164.951,257.610 165.086,234.400 165.197 M315.555 165.316 C 315.730 165.491,317.477 165.579,319.436 165.514 L 323.000 165.394 319.118 165.197 C 316.983 165.089,315.380 165.142,315.555 165.316 M94.512 165.495 C 95.564 165.577,97.184 165.576,98.112 165.492 C 99.040 165.408,98.180 165.341,96.200 165.342 C 94.220 165.343,93.460 165.412,94.512 165.495 M286.512 165.495 C 287.564 165.577,289.184 165.576,290.112 165.492 C 291.040 165.408,290.180 165.341,288.200 165.342 C 286.220 165.343,285.460 165.412,286.512 165.495 M292.142 169.000 C 292.141 170.980,292.208 171.840,292.292 170.912 C 292.376 169.984,292.377 168.364,292.295 167.312 C 292.212 166.260,292.143 167.020,292.142 169.000 M7.449 173.015 C 7.093 173.945,7.140 188.328,7.500 188.476 C 7.665 188.544,9.510 188.499,11.600 188.377 L 15.400 188.153 11.685 188.077 L 7.969 188.000 8.017 180.366 C 8.064 172.942,7.966 171.670,7.449 173.015 M322.800 179.884 C 322.800 185.641,322.927 187.607,323.319 187.933 C 323.909 188.423,338.438 188.782,338.139 188.300 C 338.037 188.135,336.347 188.000,334.385 188.000 L 330.817 188.000 330.699 180.300 L 330.582 172.600 330.491 180.316 L 330.400 188.031 326.900 187.916 L 323.400 187.800 323.325 180.259 C 323.284 176.111,323.149 172.616,323.025 172.492 C 322.901 172.368,322.800 175.695,322.800 179.884 M176.942 184.200 C 176.941 186.180,177.008 187.040,177.092 186.112 C 177.176 185.184,177.177 183.564,177.095 182.512 C 177.012 181.460,176.943 182.220,176.942 184.200 M392.000 192.237 L 392.000 203.675 388.000 203.537 C 385.799 203.462,384.049 203.549,384.110 203.732 C 384.171 203.915,386.062 204.057,388.311 204.048 C 390.560 204.039,394.110 204.025,396.200 204.016 C 398.456 204.007,400.000 203.837,400.000 203.600 C 400.000 203.363,398.533 203.200,396.400 203.200 L 392.800 203.200 392.800 192.000 C 392.800 184.800,392.657 180.800,392.400 180.800 C 392.143 180.800,392.000 184.879,392.000 192.237 M161.291 195.700 L 161.381 203.400 161.499 195.909 L 161.618 188.418 169.109 188.299 L 176.600 188.181 168.900 188.091 L 161.200 188.000 161.291 195.700 M230.661 188.300 C 230.558 188.465,231.672 188.550,233.137 188.490 C 237.777 188.297,238.321 188.130,234.524 188.064 C 232.502 188.029,230.763 188.135,230.661 188.300 M303.900 188.298 L 307.600 188.430 307.600 196.000 L 307.600 203.570 303.900 203.702 L 300.200 203.834 303.885 203.917 L 307.570 204.000 307.702 207.700 L 307.834 211.400 307.917 207.683 L 308.000 203.967 315.581 204.083 C 319.750 204.147,323.031 204.069,322.870 203.910 C 322.710 203.750,319.344 203.570,315.390 203.510 L 308.200 203.400 308.091 195.700 L 307.983 188.000 304.091 188.083 L 300.200 188.166 303.900 188.298 M223.067 188.667 C 222.920 188.813,222.800 195.652,222.800 203.864 L 222.800 218.796 188.400 218.901 L 154.000 219.007 188.500 219.003 L 223.000 219.000 223.200 203.700 C 223.310 195.285,223.385 188.400,223.367 188.400 C 223.348 188.400,223.213 188.520,223.067 188.667 M100.178 200.200 L 100.200 203.800 103.885 203.915 L 107.570 204.030 107.702 207.715 L 107.834 211.400 107.917 207.700 L 108.000 204.000 111.667 204.000 C 113.683 204.000,115.236 203.903,115.118 203.785 C 114.999 203.666,111.646 203.569,107.666 203.569 L 100.430 203.569 100.292 200.085 L 100.155 196.600 100.178 200.200 M138.400 203.600 L 130.600 203.826 138.500 203.913 C 143.558 203.969,146.400 203.856,146.400 203.600 C 146.400 203.380,146.355 203.239,146.300 203.287 C 146.245 203.335,142.690 203.476,138.400 203.600 M7.786 211.200 L 7.800 219.000 11.501 219.024 L 15.202 219.048 11.610 218.909 L 8.017 218.770 7.895 211.085 L 7.773 203.400 7.786 211.200 M338.577 207.499 L 338.600 211.400 354.000 211.400 L 369.400 211.400 369.422 207.600 L 369.443 203.800 369.307 207.500 L 369.171 211.200 354.000 211.200 L 338.829 211.200 338.692 207.399 L 338.554 203.598 338.577 207.499 M322.877 214.900 L 322.800 218.800 311.300 218.891 L 299.800 218.982 311.400 219.191 C 317.780 219.306,333.440 219.311,346.200 219.202 L 369.400 219.003 346.400 218.802 L 323.400 218.600 323.177 214.800 L 322.953 211.000 322.877 214.900 M115.342 215.000 C 115.341 216.980,115.408 217.840,115.492 216.912 C 115.576 215.984,115.577 214.364,115.495 213.312 C 115.412 212.260,115.343 213.020,115.342 215.000 M146.173 222.600 C 146.168 228.760,146.225 232.223,146.298 230.296 L 146.431 226.791 180.977 226.896 C 199.978 226.953,215.440 226.865,215.338 226.700 C 215.236 226.535,199.687 226.400,180.785 226.400 L 146.418 226.400 146.299 218.900 C 146.229 214.419,146.178 215.909,146.173 222.600 M118.000 219.074 C 124.363 219.362,130.710 219.375,130.539 219.100 C 130.437 218.935,126.988 218.835,122.876 218.878 C 118.764 218.921,116.570 219.010,118.000 219.074 M246.130 219.100 C 254.671 219.160,268.531 219.160,276.930 219.100 C 285.328 219.040,278.340 218.990,261.400 218.990 C 244.460 218.990,237.588 219.040,246.130 219.100 M7.819 226.900 C 7.467 228.031,7.289 257.200,7.634 257.200 C 7.835 257.200,8.000 255.580,8.000 253.600 L 8.000 250.000 11.600 250.000 L 15.200 250.000 15.200 253.600 L 15.200 257.200 11.700 257.232 C 5.749 257.285,8.645 257.603,16.012 257.704 L 23.000 257.800 23.115 261.500 C 23.188 263.863,23.080 265.200,22.815 265.200 C 22.184 265.200,22.266 272.263,22.900 272.507 C 23.284 272.655,23.370 271.821,23.272 268.922 L 23.144 265.144 26.973 265.272 L 30.802 265.400 30.801 261.546 L 30.800 257.692 23.214 257.401 L 15.629 257.109 15.514 253.454 L 15.400 249.800 11.700 249.685 L 8.000 249.570 8.000 238.158 L 8.000 226.745 11.763 226.873 C 13.833 226.943,15.442 226.865,15.339 226.700 C 15.003 226.160,7.992 226.346,7.819 226.900 M130.578 226.913 C 130.470 227.195,130.435 230.750,130.500 234.813 L 130.619 242.200 130.710 234.500 L 130.800 226.800 134.586 226.800 L 138.371 226.800 138.502 230.700 L 138.633 234.600 138.716 230.500 L 138.800 226.400 134.787 226.400 C 131.893 226.400,130.720 226.543,130.578 226.913 M261.691 226.699 L 299.983 226.804 300.104 234.302 L 300.226 241.800 300.213 234.200 L 300.200 226.600 261.800 226.597 L 223.400 226.594 261.691 226.699 M307.816 226.775 C 307.688 226.981,307.584 233.907,307.585 242.166 L 307.585 257.182 300.192 257.305 L 292.799 257.427 300.300 257.414 L 307.800 257.400 307.909 249.915 L 308.018 242.430 311.709 242.298 L 315.400 242.166 311.700 242.083 L 308.000 242.000 308.000 234.409 L 308.000 226.818 315.500 226.699 L 323.000 226.581 315.524 226.491 C 311.200 226.438,307.950 226.558,307.816 226.775 M53.600 233.996 C 36.550 234.108,22.645 234.335,22.700 234.500 C 22.755 234.665,22.800 236.420,22.800 238.400 C 22.800 240.380,22.935 242.000,23.100 242.001 C 23.265 242.001,23.342 240.381,23.272 238.401 L 23.143 234.800 53.972 234.800 C 81.108 234.800,84.800 234.728,84.800 234.200 C 84.800 233.870,84.755 233.643,84.700 233.696 C 84.645 233.749,70.650 233.884,53.600 233.996 M122.727 238.218 L 122.855 242.000 119.161 242.000 C 114.369 242.000,114.691 242.323,119.590 242.431 L 123.365 242.514 123.252 238.757 C 123.189 236.691,123.017 234.873,122.869 234.718 C 122.721 234.563,122.657 236.138,122.727 238.218 M188.500 234.698 C 190.645 234.770,194.155 234.770,196.300 234.698 C 198.445 234.626,196.690 234.567,192.400 234.567 C 188.110 234.567,186.355 234.626,188.500 234.698 M284.285 234.699 L 291.970 234.817 292.102 238.509 L 292.234 242.200 292.317 238.300 L 292.400 234.400 284.500 234.491 L 276.600 234.582 284.285 234.699 M388.400 242.023 L 384.600 242.247 388.300 242.323 L 392.000 242.400 392.000 246.400 C 392.000 248.600,392.158 250.400,392.352 250.400 C 392.792 250.400,392.955 242.120,392.519 241.935 C 392.343 241.861,390.490 241.901,388.400 242.023 M207.791 242.500 C 207.689 242.775,207.560 246.240,207.503 250.200 L 207.400 257.400 165.300 257.400 L 123.200 257.400 123.200 261.300 L 123.200 265.200 165.338 265.200 L 207.476 265.200 207.736 259.500 C 207.880 256.365,207.998 251.223,207.999 248.073 L 208.000 242.345 211.801 242.473 C 213.891 242.543,215.601 242.465,215.601 242.300 C 215.599 241.754,207.994 241.949,207.791 242.500 M315.536 249.696 C 315.699 249.859,324.375 250.039,334.816 250.096 L 353.800 250.200 353.915 253.900 L 354.030 257.600 365.452 257.600 L 376.875 257.600 376.737 261.529 C 376.623 264.790,376.690 265.369,377.129 264.929 C 377.508 264.550,377.622 263.433,377.529 261.012 L 377.400 257.625 381.200 257.496 L 385.000 257.367 380.884 257.284 L 376.769 257.200 376.884 253.700 L 377.000 250.200 380.900 250.086 C 383.045 250.023,384.800 249.843,384.801 249.686 C 384.802 249.243,377.472 249.609,376.904 250.080 C 376.572 250.355,376.400 251.643,376.400 253.849 L 376.400 257.200 365.400 257.200 L 354.400 257.200 354.400 253.849 C 354.400 251.550,354.233 250.359,353.868 250.057 C 353.261 249.553,315.033 249.193,315.536 249.696 M69.185 249.898 L 91.970 250.007 92.085 253.703 L 92.200 257.400 99.700 257.414 L 107.201 257.427 99.815 257.305 L 92.430 257.182 92.315 253.491 L 92.200 249.800 69.300 249.795 L 46.400 249.790 69.185 249.898 M115.200 253.733 L 115.200 257.600 111.451 257.600 L 107.702 257.600 107.412 264.775 C 107.252 268.721,107.240 272.141,107.385 272.375 C 108.019 273.401,108.192 272.554,108.073 269.001 L 107.945 265.200 111.529 265.200 L 115.113 265.200 115.406 257.783 C 115.567 253.703,115.587 250.253,115.449 250.116 C 115.312 249.979,115.200 251.607,115.200 253.733 M215.284 256.867 C 215.238 260.754,215.309 264.219,215.443 264.567 C 215.662 265.138,219.420 265.200,253.870 265.200 L 292.055 265.200 291.927 269.001 C 291.808 272.554,291.981 273.401,292.615 272.375 C 292.760 272.141,292.748 268.721,292.588 264.775 L 292.298 257.600 253.963 257.600 L 215.629 257.600 215.498 253.700 C 215.418 251.312,215.335 252.540,215.284 256.867 M46.142 253.800 C 46.141 255.780,46.208 256.640,46.292 255.712 C 46.376 254.784,46.377 253.164,46.295 252.112 C 46.212 251.060,46.143 251.820,46.142 253.800 M338.399 264.919 L 338.598 272.600 338.708 265.229 C 338.769 261.175,338.679 257.719,338.509 257.548 C 338.339 257.378,338.290 260.695,338.399 264.919 M61.366 265.200 C 61.366 269.270,61.425 270.935,61.498 268.900 C 61.571 266.865,61.571 263.535,61.498 261.500 C 61.425 259.465,61.366 261.130,61.366 265.200 M38.397 268.918 L 38.594 272.600 38.714 269.237 C 38.780 267.388,38.692 265.731,38.517 265.555 C 38.343 265.380,38.289 266.893,38.397 268.918 M361.369 265.735 C 361.256 266.030,361.219 267.695,361.286 269.435 L 361.408 272.600 361.604 268.899 C 361.799 265.218,361.762 264.713,361.369 265.735 M92.243 273.433 C 91.832 274.503,91.967 280.800,92.400 280.800 C 92.640 280.800,92.800 279.200,92.800 276.800 C 92.800 272.814,92.704 272.232,92.243 273.433 M307.206 276.700 C 307.202 279.171,307.359 280.800,307.600 280.800 C 308.119 280.800,308.119 274.004,307.600 273.200 C 307.336 272.791,307.210 273.905,307.206 276.700 " stroke="none" fill="#4d0404" fill-rule="evenodd"></path><path id="path7" d="M138.675 134.658 C 138.524 134.809,138.400 136.523,138.400 138.467 L 138.400 142.000 135.100 142.006 C 133.285 142.009,131.589 142.147,131.331 142.311 C 130.811 142.641,130.399 150.002,130.900 150.001 C 131.065 150.000,131.200 148.387,131.200 146.415 L 131.200 142.830 134.900 142.715 L 138.600 142.600 138.714 138.700 L 138.829 134.800 146.010 134.800 L 153.190 134.800 153.295 150.100 L 153.400 165.400 157.286 165.514 L 161.171 165.629 161.286 169.514 L 161.400 173.400 164.900 173.516 L 168.400 173.631 168.400 176.800 L 168.400 179.969 164.900 180.084 L 161.400 180.200 161.378 184.000 L 161.357 187.800 161.493 184.115 L 161.629 180.430 165.314 180.315 L 169.000 180.200 169.000 176.800 L 169.000 173.400 165.314 173.285 L 161.629 173.170 161.514 169.285 L 161.400 165.400 157.600 165.200 L 153.800 165.000 153.600 149.800 L 153.400 134.600 146.175 134.491 C 142.202 134.431,138.827 134.506,138.675 134.658 M284.595 142.900 C 284.474 143.395,284.429 148.480,284.495 154.200 L 284.614 164.600 284.707 153.700 L 284.800 142.800 292.424 142.800 C 297.404 142.800,299.962 142.661,299.800 142.400 C 299.206 141.439,284.837 141.911,284.595 142.900 M307.386 157.600 L 307.400 165.400 311.286 165.514 L 315.171 165.629 315.286 169.514 L 315.400 173.400 318.900 173.516 L 322.400 173.631 322.400 180.583 C 322.400 189.462,322.058 188.800,326.643 188.800 L 330.400 188.800 330.400 200.000 L 330.400 211.200 327.014 211.200 L 323.629 211.200 323.514 207.300 L 323.400 203.400 319.509 203.286 L 315.617 203.171 315.496 195.686 L 315.374 188.200 315.387 195.800 L 315.400 203.400 319.286 203.514 L 323.171 203.629 323.286 207.514 L 323.400 211.400 327.000 211.400 L 330.600 211.400 330.600 200.000 L 330.600 188.600 326.800 188.400 L 323.000 188.200 322.891 180.700 L 322.782 173.200 319.191 173.200 L 315.600 173.200 315.600 169.200 L 315.600 165.200 311.609 165.200 L 307.617 165.200 307.495 157.500 L 307.373 149.800 307.386 157.600 M291.883 165.083 C 292.183 165.296,292.411 166.791,292.483 169.013 L 292.600 172.600 296.101 172.625 L 299.602 172.650 296.216 172.509 L 292.830 172.369 292.715 168.717 C 292.626 165.878,292.466 165.028,292.000 164.902 C 291.573 164.786,291.540 164.838,291.883 165.083 M101.900 165.495 C 103.055 165.576,104.945 165.576,106.100 165.495 C 107.255 165.414,106.310 165.348,104.000 165.348 C 101.690 165.348,100.745 165.414,101.900 165.495 M192.667 173.467 C 192.520 173.613,192.400 175.229,192.400 177.058 L 192.400 180.382 184.900 180.491 L 177.400 180.600 177.200 184.400 L 177.000 188.200 169.400 188.400 L 161.800 188.600 161.600 196.301 C 161.490 200.536,161.535 204.001,161.700 204.001 C 161.865 204.000,162.000 200.580,162.000 196.400 L 162.000 188.800 169.557 188.800 C 178.300 188.800,177.600 189.203,177.600 184.167 L 177.600 180.800 185.200 180.800 L 192.800 180.800 192.800 177.200 L 192.800 173.600 211.591 173.600 L 230.382 173.600 230.501 180.900 L 230.619 188.200 230.710 180.700 L 230.800 173.200 211.867 173.200 C 201.453 173.200,192.813 173.320,192.667 173.467 M238.670 173.463 C 238.521 173.612,238.400 177.027,238.400 181.052 L 238.400 188.370 234.700 188.485 L 231.000 188.600 231.000 203.600 L 231.000 218.600 261.600 218.604 L 292.200 218.608 261.962 218.501 L 231.724 218.395 231.462 212.934 C 231.318 209.931,231.200 203.272,231.200 198.137 L 231.200 188.800 235.000 188.800 L 238.800 188.800 238.800 181.200 L 238.800 173.600 261.600 173.600 L 284.400 173.600 284.400 177.248 L 284.400 180.895 296.178 180.748 C 302.655 180.666,307.830 180.477,307.678 180.327 C 307.291 179.947,299.998 179.731,299.999 180.100 C 300.000 180.265,296.587 180.400,292.416 180.400 L 284.831 180.400 284.716 176.900 L 284.600 173.400 261.770 173.297 C 249.213 173.240,238.818 173.315,238.670 173.463 M153.200 191.800 L 153.200 195.600 149.600 195.600 C 147.620 195.600,146.000 195.735,145.999 195.900 C 145.999 196.065,147.664 196.110,149.699 196.000 L 153.400 195.800 153.600 191.899 C 153.710 189.754,153.665 187.999,153.500 187.999 C 153.335 188.000,153.200 189.710,153.200 191.800 M222.667 188.267 C 222.520 188.413,222.400 195.253,222.400 203.467 L 222.400 218.400 188.416 218.400 L 154.431 218.400 154.316 214.900 L 154.200 211.400 150.515 211.285 L 146.830 211.170 146.690 207.485 L 146.550 203.800 146.575 207.600 L 146.600 211.400 150.300 211.515 L 154.000 211.630 154.000 215.215 L 154.000 218.800 188.400 218.800 L 222.800 218.800 222.800 203.633 C 222.800 191.874,222.912 188.421,223.300 188.265 C 223.579 188.152,223.609 188.049,223.367 188.032 C 223.128 188.014,222.813 188.120,222.667 188.267 M299.999 188.500 C 300.000 188.665,301.620 188.800,303.600 188.800 L 307.200 188.800 307.200 195.985 L 307.200 203.170 303.599 203.309 L 299.998 203.448 303.699 203.424 L 307.400 203.400 307.400 196.000 L 307.400 188.600 303.699 188.400 C 301.664 188.290,299.999 188.335,299.999 188.500 M99.999 195.673 C 100.000 195.824,101.792 196.004,103.982 196.073 C 106.172 196.143,107.837 196.077,107.682 195.927 C 107.307 195.564,99.998 195.323,99.999 195.673 M111.500 203.498 L 115.200 203.630 115.200 207.407 C 115.200 211.994,114.521 211.670,123.800 211.514 L 130.600 211.400 130.714 207.509 L 130.829 203.617 138.314 203.496 L 145.800 203.374 138.200 203.387 L 130.600 203.400 130.486 207.300 L 130.371 211.200 123.186 211.200 L 116.000 211.200 116.000 207.833 C 116.000 202.983,116.193 203.185,111.657 203.283 L 107.800 203.366 111.500 203.498 M293.900 211.495 C 295.055 211.576,296.945 211.576,298.100 211.495 C 299.255 211.414,298.310 211.348,296.000 211.348 C 293.690 211.348,292.745 211.414,293.900 211.495 M64.400 257.874 C 70.798 258.162,76.710 258.175,76.539 257.900 C 76.437 257.735,73.078 257.635,69.076 257.678 C 65.074 257.721,62.970 257.809,64.400 257.874 M323.381 258.104 C 323.271 258.392,323.235 261.861,323.300 265.813 L 323.420 273.000 323.510 265.500 L 323.600 258.000 330.817 258.000 L 338.034 258.000 337.917 265.381 C 337.853 269.440,337.939 272.622,338.110 272.451 C 338.280 272.281,338.370 268.914,338.310 264.970 L 338.200 257.800 330.891 257.691 C 325.166 257.606,323.538 257.695,323.381 258.104 M61.677 265.276 C 61.635 269.168,61.735 272.437,61.900 272.539 C 62.065 272.642,62.153 270.537,62.096 267.863 C 61.906 259.034,61.755 258.100,61.677 265.276 M30.800 273.000 C 30.800 273.330,30.980 273.600,31.200 273.600 C 31.420 273.600,31.600 273.330,31.600 273.000 C 31.600 272.670,31.420 272.400,31.200 272.400 C 30.980 272.400,30.800 272.670,30.800 273.000 " stroke="none" fill="#6a5a54" fill-rule="evenodd"></path><path id="path8" d="M246.000 114.776 C 246.000 116.743,246.180 118.464,246.400 118.600 C 246.656 118.758,246.800 117.471,246.800 115.024 C 246.800 112.741,246.639 111.200,246.400 111.200 C 246.163 111.200,246.000 112.659,246.000 114.776 M246.174 123.000 L 246.200 126.600 257.600 126.610 L 269.000 126.619 257.715 126.503 L 246.431 126.388 246.289 122.894 L 246.147 119.400 246.174 123.000 M137.867 126.667 C 137.439 127.094,137.560 133.528,138.000 133.800 C 138.256 133.958,138.400 132.671,138.400 130.224 C 138.400 126.399,138.365 126.168,137.867 126.667 M161.867 126.667 C 161.720 126.813,161.603 127.128,161.606 127.367 C 161.610 127.627,161.738 127.602,161.927 127.304 C 162.169 126.923,166.652 126.783,181.221 126.700 L 200.200 126.592 181.167 126.496 C 170.698 126.443,162.013 126.520,161.867 126.667 M269.302 134.000 C 269.431 134.477,270.238 134.605,273.232 134.626 L 277.000 134.652 273.413 134.509 C 271.219 134.422,269.693 134.179,269.483 133.883 C 269.238 133.540,269.186 133.573,269.302 134.000 M153.600 149.720 L 153.799 165.000 153.905 150.025 C 153.963 141.789,153.873 134.913,153.705 134.745 C 153.537 134.577,153.490 141.316,153.600 149.720 M130.480 146.094 L 130.400 149.588 119.100 149.694 L 107.800 149.800 107.786 157.600 L 107.773 165.400 107.895 157.700 L 108.017 150.000 119.221 150.000 C 128.210 150.000,130.466 149.894,130.631 149.465 C 130.744 149.170,130.774 147.505,130.698 145.765 L 130.561 142.600 130.480 146.094 M61.200 149.500 C 61.200 149.770,89.981 149.760,102.400 149.485 C 105.150 149.424,97.005 149.335,84.300 149.287 C 71.595 149.239,61.200 149.335,61.200 149.500 M300.355 149.717 C 300.531 149.892,302.188 149.980,304.037 149.914 L 307.400 149.794 303.718 149.597 C 301.693 149.489,300.180 149.543,300.355 149.717 M334.800 149.596 L 361.400 149.800 361.515 153.500 C 361.660 158.175,362.400 158.402,362.400 153.771 C 362.400 148.701,365.393 149.185,334.729 149.296 L 308.200 149.391 334.800 149.596 M161.678 157.476 C 161.635 161.478,161.735 164.837,161.900 164.939 C 162.065 165.042,162.153 162.937,162.095 160.263 C 161.899 151.144,161.757 150.191,161.678 157.476 M37.600 160.800 L 37.600 164.400 30.571 164.400 C 25.482 164.400,23.405 164.538,23.042 164.900 C 22.555 165.386,36.535 165.481,37.900 165.001 C 38.522 164.782,38.620 157.200,38.000 157.200 C 37.763 157.200,37.600 158.667,37.600 160.800 M276.481 161.100 L 276.400 164.800 234.424 164.800 C 211.337 164.800,192.364 164.935,192.262 165.100 C 192.160 165.265,211.055 165.353,234.252 165.296 C 268.817 165.211,276.465 165.097,276.631 164.663 C 276.743 164.372,276.773 162.618,276.699 160.767 L 276.563 157.400 276.481 161.100 M361.342 161.000 C 361.341 162.980,361.408 163.840,361.492 162.912 C 361.576 161.984,361.577 160.364,361.495 159.312 C 361.412 158.260,361.343 159.020,361.342 161.000 M315.264 161.276 C 315.229 163.188,315.335 164.837,315.500 164.939 C 315.665 165.042,315.750 164.018,315.689 162.663 C 315.489 158.252,315.329 157.730,315.264 161.276 M100.137 161.400 C 100.139 163.160,100.209 163.830,100.293 162.889 C 100.378 161.949,100.377 160.509,100.291 159.689 C 100.205 158.870,100.136 159.640,100.137 161.400 M284.719 164.864 C 285.042 165.168,292.437 165.503,292.135 165.200 C 292.026 165.090,290.249 164.910,288.187 164.800 C 286.124 164.690,284.564 164.719,284.719 164.864 M369.600 164.800 C 369.600 165.035,370.989 165.200,372.967 165.200 C 374.819 165.200,376.664 165.325,377.067 165.478 C 377.754 165.738,377.757 165.712,377.129 165.078 C 376.364 164.306,369.600 164.056,369.600 164.800 M38.544 168.800 C 38.544 170.890,38.612 171.745,38.694 170.700 C 38.776 169.655,38.776 167.945,38.694 166.900 C 38.612 165.855,38.544 166.710,38.544 168.800 M92.182 165.701 C 92.077 165.977,92.037 172.952,92.095 181.201 L 92.201 196.200 92.400 180.700 C 92.510 172.175,92.549 165.200,92.487 165.200 C 92.426 165.200,92.288 165.426,92.182 165.701 M169.374 169.000 L 169.400 172.600 180.800 172.610 L 192.200 172.619 180.915 172.503 L 169.631 172.388 169.489 168.894 L 169.347 165.400 169.374 169.000 M369.555 172.917 C 369.731 173.092,371.388 173.180,373.237 173.114 L 376.600 172.994 372.918 172.797 C 370.893 172.689,369.380 172.743,369.555 172.917 M23.461 173.100 C 23.358 173.265,25.463 173.353,28.137 173.295 C 37.256 173.099,38.209 172.957,30.924 172.878 C 26.922 172.835,23.563 172.935,23.461 173.100 M165.200 173.177 L 169.000 173.400 169.000 176.800 L 169.000 180.200 165.200 180.423 L 161.400 180.647 165.020 180.723 C 169.490 180.818,169.600 180.724,169.600 176.800 C 169.600 172.876,169.490 172.782,165.020 172.877 L 161.400 172.953 165.200 173.177 M192.662 173.100 C 192.493 173.373,206.360 173.368,223.800 173.089 C 227.540 173.029,222.106 172.939,211.724 172.890 C 201.342 172.840,192.764 172.935,192.662 173.100 M238.662 173.100 C 238.560 173.265,248.882 173.400,261.600 173.400 C 274.318 173.400,284.640 173.265,284.538 173.100 C 284.436 172.935,274.114 172.800,261.600 172.800 C 249.086 172.800,238.764 172.935,238.662 173.100 M317.300 173.094 C 318.345 173.176,320.055 173.176,321.100 173.094 C 322.145 173.012,321.290 172.944,319.200 172.944 C 317.110 172.944,316.255 173.012,317.300 173.094 M15.370 180.933 C 15.258 181.227,15.227 182.982,15.301 184.833 L 15.437 188.200 15.519 184.515 L 15.600 180.830 19.300 180.698 L 23.000 180.566 19.287 180.483 C 16.502 180.421,15.524 180.533,15.370 180.933 M301.700 180.694 C 302.745 180.776,304.455 180.776,305.500 180.694 C 306.545 180.612,305.690 180.544,303.600 180.544 C 301.510 180.544,300.655 180.612,301.700 180.694 M378.500 180.694 C 379.545 180.776,381.255 180.776,382.300 180.694 C 383.345 180.612,382.490 180.544,380.400 180.544 C 378.310 180.544,377.455 180.612,378.500 180.694 M384.494 191.900 L 384.587 203.400 384.700 192.114 L 384.812 180.828 388.906 180.698 L 393.000 180.569 388.700 180.484 L 384.400 180.400 384.494 191.900 M307.778 184.600 L 307.800 188.200 311.600 188.225 L 315.400 188.250 311.715 188.110 L 308.030 187.970 307.892 184.485 L 307.755 181.000 307.778 184.600 M153.803 188.500 C 153.487 189.415,153.395 195.929,153.700 195.740 C 153.865 195.637,154.000 193.950,154.000 191.991 L 154.000 188.430 157.700 188.298 L 161.400 188.166 157.687 188.083 C 155.014 188.023,153.927 188.140,153.803 188.500 M227.200 188.291 L 230.600 188.427 230.488 199.892 C 230.426 206.198,230.466 211.268,230.576 211.157 C 230.686 211.047,230.793 205.836,230.813 199.578 L 230.850 188.200 227.325 188.178 L 223.800 188.155 227.200 188.291 M338.399 195.919 L 338.598 203.800 338.708 196.229 C 338.769 192.065,338.679 188.519,338.509 188.348 C 338.339 188.178,338.290 191.585,338.399 195.919 M7.778 188.913 C 7.669 189.196,7.631 192.661,7.692 196.613 L 7.802 203.800 8.001 196.100 C 8.196 188.546,8.175 187.877,7.778 188.913 M107.597 199.718 L 107.794 203.400 107.914 200.037 C 107.980 198.188,107.892 196.531,107.717 196.355 C 107.543 196.180,107.489 197.693,107.597 199.718 M153.800 203.587 L 146.200 203.800 146.085 207.485 L 145.970 211.170 142.285 211.285 L 138.600 211.400 138.586 219.000 L 138.572 226.600 138.695 219.100 L 138.818 211.600 142.709 211.601 L 146.600 211.602 146.473 207.801 L 146.345 204.000 153.749 204.000 C 158.253 204.000,161.250 203.843,161.400 203.600 C 161.536 203.380,161.592 203.239,161.524 203.287 C 161.456 203.334,157.980 203.469,153.800 203.587 M373.100 203.498 C 375.135 203.571,378.465 203.571,380.500 203.498 C 382.535 203.425,380.870 203.366,376.800 203.366 C 372.730 203.366,371.065 203.425,373.100 203.498 M315.378 207.800 L 315.400 211.400 319.200 211.425 L 323.000 211.450 319.315 211.310 L 315.630 211.170 315.492 207.685 L 315.355 204.200 315.378 207.800 M384.480 207.691 L 384.400 211.183 376.700 211.301 L 369.000 211.418 376.713 211.509 C 385.574 211.614,384.898 211.964,384.698 207.365 L 384.561 204.200 384.480 207.691 M392.185 223.000 C 392.185 233.340,392.236 237.627,392.300 232.528 C 392.363 227.428,392.363 218.968,392.300 213.728 C 392.237 208.487,392.185 212.660,392.185 223.000 M109.715 211.496 C 110.988 211.576,112.968 211.575,114.115 211.494 C 115.262 211.414,114.220 211.349,111.800 211.350 C 109.380 211.351,108.442 211.416,109.715 211.496 M301.700 211.494 C 302.745 211.576,304.455 211.576,305.500 211.494 C 306.545 211.412,305.690 211.344,303.600 211.344 C 301.510 211.344,300.655 211.412,301.700 211.494 M292.144 215.200 C 292.144 217.290,292.212 218.145,292.294 217.100 C 292.376 216.055,292.376 214.345,292.294 213.300 C 292.212 212.255,292.144 213.110,292.144 215.200 M115.303 218.800 C 115.439 219.301,116.698 219.418,122.933 219.509 L 130.400 219.618 130.400 223.006 L 130.400 226.393 107.500 226.497 L 84.600 226.600 84.577 230.000 L 84.553 233.400 84.692 230.100 L 84.831 226.800 107.831 226.800 L 130.830 226.800 130.715 223.100 L 130.600 219.400 123.218 219.291 C 117.951 219.213,115.736 219.041,115.487 218.691 C 115.235 218.335,115.184 218.366,115.303 218.800 M15.264 222.900 C 15.229 225.045,15.335 226.800,15.500 226.801 C 15.665 226.801,15.750 225.586,15.690 224.101 C 15.496 219.355,15.330 218.887,15.264 222.900 M23.344 230.400 C 23.344 232.490,23.412 233.345,23.494 232.300 C 23.576 231.255,23.576 229.545,23.494 228.500 C 23.412 227.455,23.344 228.310,23.344 230.400 M15.378 231.000 L 15.400 234.600 18.901 234.625 L 22.402 234.650 19.016 234.509 L 15.630 234.369 15.492 230.885 L 15.355 227.400 15.378 231.000 M215.387 234.800 L 215.400 242.200 219.101 242.224 L 222.802 242.248 219.210 242.109 L 215.618 241.970 215.496 234.685 L 215.374 227.400 215.387 234.800 M146.000 233.933 C 146.000 234.249,144.805 234.427,142.300 234.482 L 138.600 234.565 142.164 234.699 C 145.457 234.823,146.997 234.464,146.273 233.740 C 146.123 233.590,146.000 233.677,146.000 233.933 M188.521 234.298 C 190.677 234.371,194.097 234.370,196.121 234.298 C 198.144 234.225,196.380 234.166,192.200 234.167 C 188.020 234.167,186.364 234.226,188.521 234.298 M281.100 234.298 C 283.135 234.371,286.465 234.371,288.500 234.298 C 290.535 234.225,288.870 234.166,284.800 234.166 C 280.730 234.166,279.065 234.225,281.100 234.298 M84.667 234.667 C 84.520 234.813,84.400 236.522,84.400 238.464 L 84.400 241.995 53.900 242.101 L 23.400 242.208 54.000 242.204 L 84.600 242.200 84.715 238.504 L 84.830 234.808 103.715 234.700 L 122.600 234.592 103.767 234.496 C 93.408 234.443,84.813 234.520,84.667 234.667 M184.542 238.200 C 184.541 240.180,184.608 241.040,184.692 240.112 C 184.776 239.184,184.777 237.564,184.695 236.512 C 184.612 235.460,184.543 236.220,184.542 238.200 M292.542 238.200 C 292.541 240.180,292.608 241.040,292.692 240.112 C 292.776 239.184,292.777 237.564,292.695 236.512 C 292.612 235.460,292.543 236.220,292.542 238.200 M123.461 242.300 C 123.358 242.465,124.382 242.550,125.737 242.489 C 130.148 242.289,130.670 242.129,127.124 242.064 C 125.212 242.029,123.563 242.135,123.461 242.300 M188.521 242.298 C 190.677 242.371,194.097 242.370,196.121 242.298 C 198.144 242.225,196.380 242.166,192.200 242.167 C 188.020 242.167,186.364 242.226,188.521 242.298 M280.921 242.298 C 283.077 242.371,286.497 242.370,288.521 242.298 C 290.544 242.225,288.780 242.166,284.600 242.167 C 280.420 242.167,278.764 242.226,280.921 242.298 M301.400 242.253 C 304.265 242.550,307.511 242.576,307.339 242.300 C 307.237 242.135,305.588 242.029,303.676 242.064 C 301.764 242.099,300.740 242.184,301.400 242.253 M394.500 242.294 C 395.545 242.376,397.255 242.376,398.300 242.294 C 399.345 242.212,398.490 242.144,396.400 242.144 C 394.310 242.144,393.455 242.212,394.500 242.294 M115.346 246.200 C 115.347 248.400,115.414 249.249,115.495 248.087 C 115.576 246.924,115.576 245.124,115.493 244.087 C 115.411 243.049,115.345 244.000,115.346 246.200 M315.342 245.800 C 315.341 247.780,315.408 248.640,315.492 247.712 C 315.576 246.784,315.577 245.164,315.495 244.112 C 315.412 243.060,315.343 243.820,315.342 245.800 M384.542 245.800 C 384.541 247.780,384.608 248.640,384.692 247.712 C 384.776 246.784,384.777 245.164,384.695 244.112 C 384.612 243.060,384.543 243.820,384.542 245.800 M215.344 246.400 C 215.344 248.490,215.412 249.345,215.494 248.300 C 215.576 247.255,215.576 245.545,215.494 244.500 C 215.412 243.455,215.344 244.310,215.344 246.400 M92.397 253.518 L 92.594 257.400 92.714 253.836 C 92.779 251.877,92.691 250.130,92.516 249.955 C 92.342 249.780,92.289 251.383,92.397 253.518 M123.346 253.400 C 123.347 255.600,123.414 256.449,123.495 255.287 C 123.576 254.124,123.576 252.324,123.493 251.287 C 123.411 250.249,123.345 251.200,123.346 253.400 M207.346 253.400 C 207.347 255.600,207.414 256.449,207.495 255.287 C 207.576 254.124,207.576 252.324,207.493 251.287 C 207.411 250.249,207.345 251.200,207.346 253.400 M307.346 253.400 C 307.347 255.600,307.414 256.449,307.495 255.287 C 307.576 254.124,307.576 252.324,307.493 251.287 C 307.411 250.249,307.345 251.200,307.346 253.400 M7.671 257.728 C 8.438 258.495,15.200 258.739,15.200 258.000 C 15.200 257.768,13.896 257.598,12.100 257.595 C 10.395 257.592,8.550 257.469,8.000 257.322 C 7.064 257.072,7.043 257.098,7.671 257.728 M34.500 257.498 C 36.645 257.570,40.155 257.570,42.300 257.498 C 44.445 257.426,42.690 257.367,38.400 257.367 C 34.110 257.367,32.355 257.426,34.500 257.498 M64.600 257.473 C 70.425 257.761,76.710 257.775,76.539 257.500 C 76.437 257.335,73.168 257.235,69.276 257.277 C 65.384 257.319,63.280 257.408,64.600 257.473 M323.462 257.500 C 323.360 257.665,326.662 257.800,330.800 257.800 C 334.938 257.800,338.240 257.665,338.138 257.500 C 338.036 257.335,334.734 257.200,330.800 257.200 C 326.866 257.200,323.564 257.335,323.462 257.500 M377.400 258.000 C 377.536 258.220,379.257 258.400,381.224 258.400 C 383.341 258.400,384.800 258.237,384.800 258.000 C 384.800 257.761,383.259 257.600,380.976 257.600 C 378.529 257.600,377.242 257.744,377.400 258.000 M37.600 269.029 C 37.600 273.462,37.738 273.600,42.171 273.600 C 46.687 273.600,46.627 272.865,42.100 272.716 L 38.600 272.600 38.484 269.100 C 38.335 264.573,37.600 264.513,37.600 269.029 M361.516 269.100 L 361.400 272.600 357.900 272.716 C 355.975 272.779,354.400 273.004,354.400 273.216 C 354.400 273.862,361.165 273.692,361.829 273.029 C 362.492 272.365,362.662 265.600,362.016 265.600 C 361.804 265.600,361.579 267.175,361.516 269.100 M22.871 272.922 C 23.638 273.696,30.800 273.947,30.800 273.200 C 30.800 272.963,29.344 272.800,27.233 272.800 C 25.271 272.800,23.336 272.675,22.933 272.522 C 22.246 272.262,22.243 272.288,22.871 272.922 M107.494 273.100 C 107.776 273.835,292.224 273.835,292.506 273.100 C 292.659 272.701,273.994 272.600,200.000 272.600 C 126.006 272.600,107.341 272.701,107.494 273.100 M92.800 273.200 C 92.800 273.439,94.333 273.600,96.600 273.600 C 98.867 273.600,100.400 273.439,100.400 273.200 C 100.400 272.961,98.867 272.800,96.600 272.800 C 94.333 272.800,92.800 272.961,92.800 273.200 M299.800 273.200 C 299.936 273.420,301.657 273.600,303.624 273.600 C 305.741 273.600,307.200 273.437,307.200 273.200 C 307.200 272.961,305.659 272.800,303.376 272.800 C 300.929 272.800,299.642 272.944,299.800 273.200 M53.200 284.600 C 53.200 286.867,53.361 288.400,53.600 288.400 C 53.839 288.400,54.000 286.867,54.000 284.600 C 54.000 282.333,53.839 280.800,53.600 280.800 C 53.361 280.800,53.200 282.333,53.200 284.600 M346.000 284.600 C 346.000 286.867,346.161 288.400,346.400 288.400 C 346.639 288.400,346.800 286.867,346.800 284.600 C 346.800 282.333,346.639 280.800,346.400 280.800 C 346.161 280.800,346.000 282.333,346.000 284.600 " stroke="none" fill="#541c14" fill-rule="evenodd"></path></g></svg>